<?xml version="1.0" encoding="UTF-8" standalone="no"?>
<svg
   version="1.0"
   width="705.46313pt"
   height="835.78027pt"
   viewBox="0 0 705.46313 835.78027"
   preserveAspectRatio="xMidYMid"
   id="svg16"
   sodipodi:docname="Cookyv1.svg"
   inkscape:export-filename="Cookyv1.png"
   inkscape:export-xdpi="96"
   inkscape:export-ydpi="96"
   xmlns:inkscape="http://www.inkscape.org/namespaces/inkscape"
   xmlns:sodipodi="http://sodipodi.sourceforge.net/DTD/sodipodi-0.dtd"
   xmlns="http://www.w3.org/2000/svg"
   xmlns:svg="http://www.w3.org/2000/svg">
  <sodipodi:namedview
     id="namedview1"
     pagecolor="#ffffff"
     bordercolor="#000000"
     borderopacity="0.25"
     inkscape:showpageshadow="2"
     inkscape:pageopacity="0.0"
     inkscape:pagecheckerboard="0"
     inkscape:deskcolor="#d1d1d1"
     inkscape:document-units="pt"
     showgrid="true">
    <inkscape:grid
       id="grid1"
       units="pt"
       originx="0"
       originy="0"
       spacingx="1"
       spacingy="1"
       empcolor="#0099e5"
       empopacity="0.30196078"
       color="#0099e5"
       opacity="0.14901961"
       empspacing="5"
       enabled="true"
       visible="true" />
    <inkscape:page
       x="0"
       y="0"
       width="705.46313"
       height="835.78027"
       id="page2"
       margin="0"
       bleed="0" />
  </sodipodi:namedview>
  <defs
     id="defs16" />
  <g
     transform="matrix(0.1,0,0,-0.1,-174.75857,881.20559)"
     fill="#000000"
     stroke="none"
     id="g16">
    <path
       d="m 5084.0618,8796.0864 c -169,-36 -291,-91 -411,-187 -62,-49 -151,-142 -171,-179 -7,-11 -17,-12 -53,-4 -74,17 -257,14 -330,-5 -84,-21 -194,-74 -263,-124 -207,-153 -325,-456 -274,-699 63,-294 260,-494 549,-557 l 26,-6 -5,-92 c -3,-51 0,-142 6,-203 l 12,-110 -53,-45 c -100,-85 -230,-215 -291,-290 -216,-268 -359,-598 -394,-916 -17,-148 -8,-432 17,-565 133,-702 654,-1268 1334,-1449 1030,-275 2063,367 2286,1420 32,154 46,388 32,523 -55,497 -280,921 -657,1235 l -90,75 v 209 209 l 25,6 c 285,64 477,240 546,502 24,90 28,224 10,316 -21,105 -98,262 -166,338 -162,180 -397,266 -643,234 l -97,-13 -49,57 c -174,207 -417,323 -694,334 -86,4 -133,0 -202,-14 z m 370,-174 c 180,-52 365,-184 461,-328 36,-55 44,-75 44,-113 0,-25 4,-46 8,-46 15,0 50,44 65,82 20,47 41,53 182,52 178,-2 285,-44 400,-159 112,-112 165,-233 165,-380 0,-151 -51,-276 -156,-381 -73,-74 -158,-118 -269,-141 -73,-15 -87,-15 -171,0 -101,18 -230,56 -313,93 l -54,24 50,53 c 77,81 132,194 103,212 -6,4 -38,-22 -73,-57 -116,-118 -254,-200 -382,-229 -39,-9 -127,-13 -255,-13 -344,1 -432,31 -584,204 -32,36 -80,102 -108,148 -28,45 -55,82 -61,82 -17,0 3,-101 34,-177 17,-39 53,-104 80,-143 40,-57 48,-74 39,-85 -30,-36 -326,-125 -415,-125 -168,0 -359,119 -442,275 -88,167 -84,371 12,534 40,68 141,165 214,204 105,58 272,81 392,56 51,-11 51,-11 82,-80 16,-38 33,-69 37,-69 4,0 11,23 14,52 8,61 24,94 81,168 89,115 181,182 346,250 123,52 171,60 304,55 66,-2 143,-11 170,-18 z m -555,-1451 c 229,-44 538,-48 685,-7 97,27 109,26 296,-37 79,-27 176,-57 216,-66 40,-10 78,-25 85,-34 10,-11 13,-69 13,-228 0,-117 -3,-215 -7,-219 -3,-4 -17,0 -30,8 -41,27 -369,114 -533,143 -22,4 -49,8 -60,10 -183,35 -510,30 -717,-10 -143,-27 -326,-85 -435,-135 -40,-19 -65,-26 -69,-19 -28,45 -43,443 -18,468 5,5 72,26 149,45 125,33 174,48 285,91 19,7 42,11 50,9 8,-2 49,-11 90,-19 z m 645,-571 c 200,-30 441,-99 607,-171 87,-39 99,-37 122,18 l 12,27 71,-59 c 254,-210 459,-546 549,-898 59,-234 50,-558 -21,-814 -167,-591 -630,-1047 -1206,-1188 -169,-41 -297,-54 -484,-47 -503,17 -935,238 -1253,640 -224,284 -363,690 -362,1062 1,238 68,505 182,728 97,189 234,368 380,499 l 75,67 16,-35 c 10,-19 23,-37 31,-40 8,-3 63,17 124,45 143,65 198,86 307,116 114,31 238,54 340,61 44,4 82,9 85,11 10,10 325,-7 425,-22 z"
       id="path1"
       style="fill:#ff6600;stroke:#000000;stroke-opacity:1" />
    <path
       d="m 4573.0618,5637.0864 c -21,-16 -52,-53 -69,-83 -26,-47 -30,-64 -30,-134 0,-90 21,-141 78,-196 40,-39 66,-49 123,-49 74,0 120,34 165,120 19,36 24,60 24,125 -1,70 -4,87 -30,134 -43,77 -92,111 -165,111 -47,0 -64,-5 -96,-28 z"
       id="path4"
       style="fill:#ff6600" />
    <path
       d="m 5774.0618,5646.0864 c -82,-49 -120,-134 -113,-250 4,-67 10,-88 34,-128 37,-60 92,-93 157,-93 59,0 95,18 139,70 102,119 68,337 -64,406 -38,20 -117,18 -153,-5 z"
       id="path5"
       style="fill:#ff6600" />
    <path
       d="m 4830.0618,4939.0864 c -25,-32 -26,-45 -5,-87 87,-167 301,-267 514,-237 131,18 263,93 331,189 45,62 51,109 19,141 -38,38 -83,22 -115,-39 -47,-91 -214,-167 -343,-155 -127,12 -225,72 -305,188 -24,35 -68,35 -96,0 z"
       id="path8"
       style="fill:#ff6600" />
    <path
       d="m 2414.4197,2828.9875 c -210,-37 -372,-133 -497,-295 -172,-221 -219,-590 -115,-902 106,-323 404,-511 809,-511 273,-1 514,132 619,341 53,105 51,108 -97,182 l -122,62 -20,-29 c -38,-55 -124,-133 -174,-159 -175,-88 -402,-66 -538,52 -183,162 -204,546 -40,775 75,105 150,151 273,165 226,26 399,-49 466,-203 13,-30 28,-54 35,-54 6,0 70,32 142,71 102,55 131,76 131,92 0,41 -71,167 -131,231 -68,73 -170,132 -289,166 -96,28 -336,36 -452,16 z"
       id="path12"
       style="fill:#ff6600" />
    <path
       d="m 6336.4197,2803.9875 c -7,-13 -10,-288 -10,-820 0,-788 0,-801 20,-821 18,-18 33,-20 163,-20 78,0 148,4 155,9 24,15 32,83 32,294 v 207 h 24 c 13,0 34,-9 48,-19 14,-11 94,-123 179,-250 92,-137 162,-232 174,-235 42,-12 361,-6 378,7 15,11 4,31 -109,202 -69,104 -166,251 -216,327 l -90,137 163,223 c 222,305 219,300 219,315 0,10 -39,13 -182,13 -101,0 -188,-4 -194,-8 -5,-4 -37,-43 -69,-87 -185,-253 -290,-364 -316,-338 -6,6 -11,191 -12,430 -2,339 -5,423 -16,436 -11,15 -37,17 -172,17 -146,0 -159,-1 -169,-19 z"
       id="path13"
       style="fill:#ff6600" />
    <path
       d="m 3911.4197,2377.9875 c -258,-48 -437,-206 -501,-443 -10,-39 -15,-100 -15,-195 1,-119 4,-148 25,-210 44,-130 109,-222 210,-297 122,-89 238,-124 411,-124 196,1 339,52 460,166 77,72 124,145 161,253 25,72 28,94 28,215 1,104 -4,149 -18,195 -76,244 -249,396 -502,440 -102,18 -164,18 -259,0 z m 266,-332 c 98,-55 144,-157 144,-313 -2,-201 -106,-320 -280,-320 -119,0 -197,47 -247,148 -32,64 -33,71 -33,192 0,117 2,129 28,182 51,105 135,150 263,144 57,-2 83,-9 125,-33 z"
       id="path14"
       style="fill:#ff6600" />
    <path
       d="m 5370.4197,2382.9875 c -241,-35 -434,-200 -506,-430 -19,-62 -23,-96 -22,-200 1,-208 52,-341 178,-465 123,-121 263,-177 446,-178 121,-2 180,6 264,34 205,68 357,240 400,451 58,281 -44,543 -269,694 -119,80 -322,119 -491,94 z m 252,-331 c 56,-27 104,-83 129,-151 29,-78 27,-241 -4,-322 -44,-111 -130,-166 -262,-166 -178,0 -279,121 -279,337 0,140 39,236 118,288 74,49 213,56 298,14 z"
       id="path15"
       style="fill:#ff6600" />
    <path
       d="m 7562.4197,2363.9875 c -7,-11 40,-148 133,-388 91,-235 238,-601 295,-737 25,-60 46,-118 46,-129 0,-34 -47,-84 -104,-112 -43,-20.9999 -74,-27.9999 -153,-31.9999 -54,-3 -104,-10 -110,-16 -9,-7 -13,-46.00004 -13,-131.99999 0,-100.99996 3,-124.99996 16,-135.99996 22,-18 191,-24 269,-10 33,6 98,30 145,52 100,49 188,132.99991 237,224.99995 54,102.9999 335,898.9999 453,1286.9999 26,84 31,110 21,120 -8,8 -61,13 -160,15 -130,3 -150,1 -170,-15 -17,-14 -35,-64 -77,-213 -30,-107 -61,-215 -68,-240 -8,-25 -36,-112 -62,-194 l -47,-150 -23,65 c -171,486 -257,715 -270,730 -15,17 -34,19 -185,19 -92,0 -170,-4 -173,-9 z"
       id="path16"
       style="fill:#ff6600" />
  </g>
</svg>
